<?xml version="1.0" encoding="UTF-8"?>
<svg width="200px" height="200px" viewBox="0 0 200 200" version="1.1" xmlns="http://www.w3.org/2000/svg" xmlns:xlink="http://www.w3.org/1999/xlink">
    <title>编组 2</title>
    <defs>
        <circle id="path-1" cx="100" cy="100" r="100"></circle>
    </defs>
    <g id="页面-1" stroke="none" stroke-width="1" fill="none" fill-rule="evenodd">
        <g id="桌面端" transform="translate(-365.000000, -412.000000)">
            <g id="编组-2" transform="translate(365.000000, 412.000000)">
                <mask id="mask-2" fill="white">
                    <use xlink:href="#path-1"></use>
                </mask>
                <use id="蒙版" fill="#D8D8D8" xlink:href="#path-1"></use>
                <g mask="url(#mask-2)">
                    <g id="usdt" fill-rule="nonzero">
                        <path d="M0,100 C0,155.228475 44.771525,200 100,200 C155.228475,200 200,155.228475 200,100 C200,44.771525 155.228475,0 100,0 C44.771525,0 0,44.771525 0,100 Z" id="路径" fill="#26A17B"></path>
                        <path d="M112.0125,108.64375 L112.0125,108.63125 C111.325,108.68125 107.78125,108.89375 99.875,108.89375 C93.5625,108.89375 89.11875,108.70625 87.55625,108.63125 L87.55625,108.65 C63.25625,107.58125 45.11875,103.35 45.11875,98.2875 C45.11875,93.23125 63.25625,89 87.55625,87.9125 L87.55625,104.4375 C89.14375,104.55 93.69375,104.81875 99.98125,104.81875 C107.525,104.81875 111.30625,104.50625 112.0125,104.44375 L112.0125,87.925 C136.2625,89.00625 154.35625,93.2375 154.35625,98.2875 C154.35625,103.35 136.2625,107.56875 112.0125,108.64375 M112.0125,86.20625 L112.0125,71.41875 L145.85,71.41875 L145.85,48.86875 L53.71875,48.86875 L53.71875,71.41875 L87.55625,71.41875 L87.55625,86.2 C60.05625,87.4625 39.375,92.9125 39.375,99.4375 C39.375,105.9625 60.05625,111.40625 87.55625,112.675 L87.55625,160.0625 L112.0125,160.0625 L112.0125,112.6625 C139.46875,111.4 160.1,105.95625 160.1,99.4375 C160.1,92.91875 139.46875,87.475 112.0125,86.20625" id="形状" fill="#FFFFFF"></path>
                    </g>
                    <g id="编组" transform="translate(0.000000, 130.000000)">
                        <rect id="矩形" fill-opacity="0.4" fill="#000000" x="0" y="6" width="197" height="64"></rect>
                        <text id="TRC20" font-family="DINAlternate-Bold, DIN Alternate" font-size="48" font-weight="bold" fill="#FFFFFF">
                            <tspan x="36" y="45">TRC20</tspan>
                        </text>
                    </g>
                </g>
            </g>
        </g>
    </g>
</svg>