<?xml version="1.0" standalone="no"?><!DOCTYPE svg PUBLIC "-//W3C//DTD SVG 1.1//EN" "http://www.w3.org/Graphics/SVG/1.1/DTD/svg11.dtd"><svg t="1626697417736" class="icon" viewBox="0 0 1024 1024" version="1.1" xmlns="http://www.w3.org/2000/svg" p-id="3483" xmlns:xlink="http://www.w3.org/1999/xlink" width="64" height="64"><defs><style type="text/css"></style></defs><path d="M512 1024c-161.28 0-287.744-224.768-287.744-512S350.72 0 512 0s288.256 224.768 288.256 512C799.744 799.232 673.28 1024 512 1024z m0-960c-121.344 0-223.744 205.312-223.744 448S390.656 960 512 960s224.256-205.312 224.256-448S633.344 64 512 64z" p-id="3484" fill="#ffffff"></path><path d="M512 1024c-152.576 0-295.936-67.072-393.728-184.832l-23.04-27.648 30.72-19.456c96.768-61.952 237.568-97.28 386.048-97.28 148.992 0 289.792 35.328 386.048 97.28l30.72 19.456-23.04 27.648C807.936 956.928 664.576 1024 512 1024zM193.536 826.88C277.504 911.872 391.68 960 512 960s234.496-48.128 318.464-133.12C745.984 783.36 632.32 758.784 512 758.784S278.016 783.36 193.536 826.88zM512 345.6c-154.624 0-298.496-37.888-395.264-103.424L88.064 222.72l20.992-27.136C207.36 71.168 353.792 0 512 0c158.208 0 304.64 71.168 402.432 195.584l20.992 27.136-28.672 19.456C810.496 307.712 666.624 345.6 512 345.6zM183.296 207.872C268.288 254.976 386.048 281.6 512 281.6s243.712-26.624 328.704-73.728C756.224 116.224 637.952 64 512 64s-244.224 52.224-328.704 143.872z" p-id="3485" fill="#ffffff"></path><path d="M136.192 861.184l-17.92-21.504C41.984 747.52 0 631.296 0 512c0-115.712 37.888-225.28 109.568-316.416L128 172.032l24.576 16.896C239.104 247.808 370.176 281.6 512 281.6s272.896-33.792 359.424-92.16L896 172.544l18.432 23.552C986.112 286.72 1024 396.288 1024 512c0 119.296-41.984 235.52-118.272 327.168l-17.92 21.504-23.552-15.36c-86.528-55.296-214.528-87.04-351.744-87.04-137.216 0-265.216 31.744-351.744 87.04l-24.576 15.872zM512 694.784c136.704 0 266.24 29.696 360.96 82.432C929.28 700.928 960 607.744 960 512c0-91.648-27.136-178.688-78.848-253.44C785.408 314.368 652.8 345.6 512 345.6s-273.408-31.232-369.152-87.04C91.136 333.312 64 420.352 64 512c0 95.232 30.72 188.416 87.04 265.216 94.72-52.736 224.256-82.432 360.96-82.432z" p-id="3486" fill="#ffffff"></path><path d="M479.744 31.744h64v960h-64z" p-id="3487" fill="#ffffff"></path><path d="M32.256 479.744h960v64h-960z" p-id="3488" fill="#ffffff"></path></svg>