<?xml version="1.0" encoding="UTF-8"?>
<svg width="209px" height="129px" viewBox="0 0 209 129" version="1.1" xmlns="http://www.w3.org/2000/svg" xmlns:xlink="http://www.w3.org/1999/xlink">
    <title>poster-bg1</title>
    <defs>
        <path d="M170.841978,-3.91919855e-23 C167.681463,19.6949322 148.234001,35.1355569 127.622046,32.8971103 C126.827134,32.8107945 126.029605,32.7168841 125.230445,32.6207991 L123.790406,32.4466681 C115.942911,31.4985828 107.995379,30.65397 100.874046,35.0141103 C89.9700459,41.6891103 84.1770459,55.7561103 78.2380459,65.9541103 C71.6550459,77.2591103 61.5550459,86.5471103 49.6350459,91.9721103 C33.9116239,99.1272463 15.7369595,98.78528 0,92.5951839 L0,-3.91919855e-23 L170.841978,-3.91919855e-23 Z" id="path-1"></path>
        <linearGradient x1="82.4326012%" y1="15.1954978%" x2="12.0381854%" y2="4.72194301%" id="linearGradient-3">
            <stop stop-color="#08A8F4" offset="0%"></stop>
            <stop stop-color="#0F43B5" offset="100%"></stop>
        </linearGradient>
        <linearGradient x1="0%" y1="49.9987226%" x2="100%" y2="49.9987226%" id="linearGradient-4">
            <stop stop-color="#0F43B5" offset="0%"></stop>
            <stop stop-color="#08A0EF" offset="100%"></stop>
        </linearGradient>
        <linearGradient x1="-15.2235551%" y1="42.4943659%" x2="102.058174%" y2="90.5374184%" id="linearGradient-5">
            <stop stop-color="#08A8F4" offset="0%"></stop>
            <stop stop-color="#0F43B5" offset="100%"></stop>
        </linearGradient>
    </defs>
    <g id="页面-1" stroke="none" stroke-width="1" fill="none" fill-rule="evenodd">
        <g id="poster-bg1" transform="translate(0.468000, 0.168000)">
            <path d="M0,52.1021563 C9.55521402,63.8752249 23.5879421,69.145964 42.0981843,67.9143736 C60.6084264,66.6827832 77.3068326,60.4098701 92.1934027,49.0956344 C113.643,29.3056354 134.617808,24.4728184 155.117827,34.5971835 C175.617846,44.7215485 184.349957,62.4142918 181.314159,87.6754133 C179.55792,99.6414464 180.585799,108.504589 184.397795,114.264841 C188.209791,120.025093 196.077193,124.603479 208,128 L208,44.2966726 C198.846919,40.5698266 191.405527,34.6627368 185.675826,26.5754032 C179.946124,18.4880696 176.926436,9.62960187 176.616762,0 L0,0 L0,52.1021563 Z" id="路径-2" fill="#0F43B5" fill-rule="nonzero"></path>
            <g id="Fill-47-Clipped" transform="translate(0.260954, 0.370890)">
                <mask id="mask-2" fill="white">
                    <use xlink:href="#path-1"></use>
                </mask>
                <g id="path-1"></g>
                <polygon id="Fill-47" fill="url(#linearGradient-3)" fill-rule="nonzero" mask="url(#mask-2)" points="4.5880688e-05 312.38211 207.242046 312.38211 207.242046 0.000110335788 4.5880688e-05 0.000110335788"></polygon>
            </g>
            <path d="M125.378,75.084 C125.738,78.873 122.958,82.237 119.169,82.596 C115.38,82.956 112.017,80.176 111.657,76.386 C111.298,72.597 114.078,69.235 117.866,68.875 C121.656,68.515 125.019,71.295 125.378,75.084" id="Fill-51" fill="url(#linearGradient-4)" fill-rule="nonzero"></path>
            <path d="M85.099,89.209 C74.969,96.966 62.383,100.714 49.784,97.325 C35.502,93.484 18.286,77.61 25.013,61.468 C29.645,50.355 40.275,52.427 49.707,54.671 C55.658,56.086 61.567,57.6 67.733,57.373 C73.861,57.147 80.181,56.172 86.285,57.344 C88.711,57.81 91.153,58.607 93.021,60.224 C98.071,64.593 97.981,73.251 94.848,78.671 C92.594,82.573 89.049,86.185 85.099,89.209" id="Fill-59" fill="url(#linearGradient-5)" fill-rule="nonzero"></path>
        </g>
    </g>
</svg>