<?xml version="1.0" encoding="UTF-8"?>
<svg width="208px" height="115px" viewBox="0 0 208 115" version="1.1" xmlns="http://www.w3.org/2000/svg" xmlns:xlink="http://www.w3.org/1999/xlink">
    <title>poster-bg2</title>
    <defs>
        <path d="M-1.52020044e-23,1.45144001 C20.194806,-2.45068121 41.3412123,1.56651159 59.164,12.8830907 C73.237,21.8180907 84.498,35.0690907 91.212,50.3140907 C96.284,61.8250907 101.198,82.4440907 117.19,82.3270907 C123.221,82.2832948 128.035238,79.1371544 132.787431,75.8826684 L133.942762,75.0904957 C135.0981,74.2993781 136.255306,73.5162131 137.431,72.7840907 C145.242,67.9220907 153.448,63.5610907 162.408,61.2500907 C175.35,57.9120907 190.317,59.4780907 200.174,68.5050907 C203.046956,71.1360819 205.365247,74.2753687 207.242478,77.6904307 L207.242478,106.996091 L-1.52020044e-23,106.996091 L-1.52020044e-23,1.45144001 Z" id="path-1"></path>
        <linearGradient x1="48.5740049%" y1="53.689141%" x2="51.9753898%" y2="108.781392%" id="linearGradient-3">
            <stop stop-color="#08A8F4" offset="0%"></stop>
            <stop stop-color="#0F43B5" offset="100%"></stop>
        </linearGradient>
        <path d="M-7.10542736e-15,1.62725377 C22.6709801,-4.02182176 48.8081584,5.24182096 61.6494015,26.235035 C61.9363729,26.704235 62.2218602,27.1756887 62.5064695,27.6487246 L63.0746966,28.5967074 C63.6421121,29.546402 64.207631,30.5006354 64.776101,31.4540367 L65.3457344,32.4069616 C65.7263851,33.0417947 66.1090657,33.6754622 66.4952124,34.3063728 L67.0772117,35.2504719 C72.0493545,43.254357 77.7017157,50.6807064 87.0114015,54.231035 C103.829401,60.644035 124.490401,55.005035 140.965401,52.854035 C159.228401,50.469035 178.267401,53.740035 194.564401,62.362035 C198.986605,64.7015435 203.232272,67.5801431 207.243958,70.8998976 L207.243958,89.689035 L24.7187207,89.6861643 C17.5720784,84.5360496 8.7486142,82.8503142 -7.10542736e-15,81.2339885 L-7.10542736e-15,1.62725377 Z" id="path-4"></path>
        <linearGradient x1="51.9847123%" y1="56.1673287%" x2="63.7796868%" y2="136.618596%" id="linearGradient-6">
            <stop stop-color="#08A8F4" offset="0%"></stop>
            <stop stop-color="#0F43B5" offset="100%"></stop>
        </linearGradient>
        <linearGradient x1="40.1194606%" y1="-29.8855887%" x2="50.4159662%" y2="67.6787243%" id="linearGradient-7">
            <stop stop-color="#0F43B5" offset="0%"></stop>
            <stop stop-color="#08A8F4" offset="100%"></stop>
        </linearGradient>
        <linearGradient x1="0%" y1="49.9987226%" x2="100%" y2="49.9987226%" id="linearGradient-8">
            <stop stop-color="#0F43B5" offset="0%"></stop>
            <stop stop-color="#08A8F4" offset="100%"></stop>
        </linearGradient>
        <linearGradient x1="1.09628759e-13%" y1="25.5694966%" x2="100%" y2="74.2746781%" id="linearGradient-9">
            <stop stop-color="#08A8F4" offset="0%"></stop>
            <stop stop-color="#0F43B5" offset="100%"></stop>
        </linearGradient>
    </defs>
    <g id="页面-1" stroke="none" stroke-width="1" fill="none" fill-rule="evenodd">
        <g id="poster-bg2" transform="translate(0.728599, 0.569703)">
            <g id="Fill-39-Clipped" transform="translate(0.000401, 7.355206)">
                <mask id="mask-2" fill="white">
                    <use xlink:href="#path-1"></use>
                </mask>
                <g id="path-1"></g>
                <polygon id="Fill-39" fill="url(#linearGradient-3)" fill-rule="nonzero" mask="url(#mask-2)" points="-1.52020044e-23 106.996091 207.242 106.996091 207.242 -205.385909 -1.52020044e-23 -205.385909"></polygon>
            </g>
            <g id="Fill-43-Clipped" transform="translate(0.000000, 24.662262)">
                <mask id="mask-5" fill="white">
                    <use xlink:href="#path-4"></use>
                </mask>
                <g id="path-4"></g>
                <polygon id="Fill-43" fill="url(#linearGradient-6)" fill-rule="nonzero" mask="url(#mask-5)" points="0.000401455046 89.689035 207.242401 89.689035 207.242401 -222.692965 0.000401455046 -222.692965"></polygon>
            </g>
            <path d="M199.137401,10.2142971 C199.725401,16.4162971 195.175401,21.9212971 188.974401,22.5082971 C182.772401,23.0972971 177.268401,18.5472971 176.679401,12.3452971 C176.091401,6.14429714 180.641401,0.640297138 186.842401,0.0512971375 C193.044401,-0.537702862 198.548401,4.01329714 199.137401,10.2142971" id="Fill-53" fill="url(#linearGradient-7)" fill-rule="nonzero"></path>
            <path d="M111.484401,54.1492971 C107.197401,53.8572971 103.469401,50.7752971 102.377401,46.6192971 C100.572401,39.7562971 105.950401,33.2522971 113.030401,33.7342971 C117.317401,34.0262971 121.044401,37.1082971 122.137401,41.2632971 C123.942401,48.1272971 118.564401,54.6312971 111.484401,54.1492971 Z" id="Fill-55" fill="url(#linearGradient-8)" fill-rule="nonzero"></path>
            <path d="M169.439401,41.9962971 C162.474401,38.5882971 153.838401,40.7292971 147.227401,43.7482971 C138.444401,47.7572971 129.925401,54.3592971 124.694401,62.5682971 C121.278401,67.9292971 119.028401,74.4472971 117.556401,80.6482971 C117.344401,81.5422971 117.167401,82.4432971 117.036401,83.3512971 C116.469401,87.2572971 116.760401,91.3672971 118.435401,94.9412971 C119.904401,98.0752971 122.804401,101.141297 126.546401,100.371297 C129.104401,99.8442971 131.270401,98.1732971 133.165401,96.3772971 C135.280401,94.3712971 137.479401,92.5052971 139.628401,90.5562971 C142.646401,87.8202971 145.648401,84.9862971 149.235401,83.0542971 C152.280401,81.4142971 155.706401,80.4522971 159.087401,79.7982971 C161.925401,79.2512971 164.884401,78.8782971 167.536401,77.6612971 C173.970401,74.7092971 178.341401,67.9322971 179.067401,60.9812971 C179.827401,53.6972971 176.252401,45.3282971 169.439401,41.9962971 Z" id="Fill-57" fill="url(#linearGradient-9)" fill-rule="nonzero"></path>
        </g>
    </g>
</svg>