<?xml version="1.0" standalone="no"?><!DOCTYPE svg PUBLIC "-//W3C//DTD SVG 1.1//EN" "http://www.w3.org/Graphics/SVG/1.1/DTD/svg11.dtd"><svg t="1632140442220" class="icon" viewBox="0 0 1024 1024" version="1.1" xmlns="http://www.w3.org/2000/svg" p-id="2557" xmlns:xlink="http://www.w3.org/1999/xlink" width="200" height="200"><defs><style type="text/css"></style></defs><path d="M683.803401 217.183659c-63.110421-63.114034-150.30901-102.1688-246.585818-102.1688-96.287646 0-183.489847 39.058379-246.600268 102.1688-63.110421 63.106809-102.1688 150.30901-102.1688 246.603881 0 96.262358 39.058379 183.479009 102.1688 246.571368 63.106809 63.121259 150.330685 102.179637 246.600268 102.179637 96.273196 0 183.475397-39.061991 246.585818-102.179637 63.106809-63.095971 102.165187-150.30901 102.165187-246.571368C785.968588 367.510732 746.91021 280.290468 683.803401 217.183659M437.217583 49.953687c114.256234 0 217.732759 46.341184 292.605489 121.206689 74.869117 74.865505 121.206689 178.378156 121.206689 292.623552 0 83.990687-25.052706 162.179694-68.077612 227.446779 75.728893 76.949919 121.098314 123.47534 196.856107 200.432484 46.850547 45.586171-16.798137 111.619107-64.53736 64.533747l-190.931602-194.417667c-74.417555 71.675665-175.647104 115.805997-287.12171 115.805997-114.245396 0-217.754434-46.337571-292.619939-121.206689-74.865505-74.861892-121.213914-178.349256-121.213914-292.598264 0-114.270684 46.348409-217.761659 121.213914-292.623552S322.950512 49.953687 437.217583 49.953687z" p-id="2558" fill="#ffffff"></path></svg>