<?xml version="1.0" standalone="no"?><!DOCTYPE svg PUBLIC "-//W3C//DTD SVG 1.1//EN" "http://www.w3.org/Graphics/SVG/1.1/DTD/svg11.dtd"><svg t="1632208995850" class="icon" viewBox="0 0 1024 1024" version="1.1" xmlns="http://www.w3.org/2000/svg" p-id="2445" xmlns:xlink="http://www.w3.org/1999/xlink" width="200" height="200"><defs><style type="text/css"></style></defs><path d="M497.28 342.4a182.72 182.72 0 1 0 183.04 182.72 182.72 182.72 0 0 0-183.04-182.72z m0 301.44a118.72 118.72 0 1 1 119.04-118.72 119.04 119.04 0 0 1-119.04 118.72z" p-id="2446" fill="#ffffff"></path><path d="M920 435.2l-5.12-23.04-23.36-2.24a118.4 118.4 0 0 1-97.6-168l9.92-21.44-17.28-16a436.48 436.48 0 0 0-155.84-90.24L608 106.88l-13.44 21.12a118.08 118.08 0 0 1-194.24 0l-13.76-19.52-22.4 7.36a436.48 436.48 0 0 0-155.84 88.64l-16.32 16 9.92 21.44a118.4 118.4 0 0 1-97.6 168l-23.36 2.24-5.12 23.04a425.92 425.92 0 0 0 0 179.84l5.12 23.04 23.36 2.24a118.4 118.4 0 0 1 97.6 168l-9.92 21.44 17.28 15.68a432.64 432.64 0 0 0 155.84 90.56l22.4 7.36 13.76-19.52a118.08 118.08 0 0 1 194.24 0l13.76 19.52 22.4-7.36a432.64 432.64 0 0 0 155.84-90.56l17.28-15.68-9.92-21.44A118.4 118.4 0 0 1 891.52 640l23.36-2.24 5.12-23.04a440.32 440.32 0 0 0 0-179.84z m-58.88 145.28a182.08 182.08 0 0 0-134.08 231.68 363.2 363.2 0 0 1-96 55.68 181.76 181.76 0 0 0-267.84 0 363.2 363.2 0 0 1-96-55.68 183.36 183.36 0 0 0-16.32-145.28 181.76 181.76 0 0 0-117.76-86.4 344.32 344.32 0 0 1 0-110.72 182.4 182.4 0 0 0 134.72-231.68 363.2 363.2 0 0 1 96-55.68 182.72 182.72 0 0 0 133.76 58.88 181.76 181.76 0 0 0 133.76-58.88 363.2 363.2 0 0 1 96 55.68 182.4 182.4 0 0 0 134.08 231.68 370.56 370.56 0 0 1 0 110.72z" p-id="2447" fill="#ffffff"></path></svg>